<?xml version="1.0" encoding="utf-8"?>
<!-- Generator: Adobe Illustrator 21.1.0, SVG Export Plug-In . SVG Version: 6.00 Build 0)  -->
<svg version="1.1" id="Слой_1" xmlns="http://www.w3.org/2000/svg" xmlns:xlink="http://www.w3.org/1999/xlink" x="0px" y="0px"
	 viewBox="0 0 500 500" style="enable-background:new 0 0 500 500;" xml:space="preserve">
<style type="text/css">
	.st0{fill:url(#SVGID_1_);}
	.st1{fill:url(#SVGID_2_);}
	.st2{fill:url(#SVGID_3_);}
	.st3{fill:url(#SVGID_4_);}
	.st4{display:none;fill:url(#SVGID_5_);}
	.st5{fill:url(#SVGID_6_);}
	.st6{fill:url(#SVGID_7_);}
	.st7{fill:url(#SVGID_8_);}
	.st8{fill:url(#SVGID_9_);}
	.st9{fill:url(#SVGID_10_);}
	.st10{fill:url(#SVGID_11_);}
	.st11{fill:url(#SVGID_12_);}
	.st12{fill:url(#SVGID_13_);}
	.st13{fill:url(#SVGID_14_);}
</style>
<g id="Слой_2">
	
		<linearGradient id="SVGID_1_" gradientUnits="userSpaceOnUse" x1="87.5269" y1="25.2225" x2="412.717" y2="489.6419" gradientTransform="matrix(1 0 0 -1 0 536.3)">
		<stop  offset="0" style="stop-color:#FFFFFF"/>
		<stop  offset="0" style="stop-color:#1EA69A"/>
		<stop  offset="1" style="stop-color:#7DC24E"/>
		<stop  offset="1" style="stop-color:#000000"/>
	</linearGradient>
	<path class="st0" d="M440.2,478.7H60.1c-33,0-59.8-26.8-59.8-59.8V138.9c0-33,26.8-59.8,59.8-59.8h380.1c33,0,59.8,26.8,59.8,59.8
		v279.9C500,451.8,473.2,478.7,440.2,478.7z M60.1,108c-17,0-30.8,13.9-30.8,30.8v279.9c0,17,13.9,30.8,30.8,30.8h380.1
		c17,0,30.8-13.9,30.8-30.8V138.9c0-17-13.9-30.8-30.8-30.8L60.1,108L60.1,108z"/>
	
		<linearGradient id="SVGID_2_" gradientUnits="userSpaceOnUse" x1="60.6836" y1="398.5042" x2="133.1167" y2="501.9494" gradientTransform="matrix(1 0 0 -1 0 536.3)">
		<stop  offset="0" style="stop-color:#FFFFFF"/>
		<stop  offset="0" style="stop-color:#1EA69A"/>
		<stop  offset="1" style="stop-color:#7DC24E"/>
		<stop  offset="1" style="stop-color:#000000"/>
	</linearGradient>
	<path class="st1" d="M105.3,149.7H88.5c-18.8,0-34.2-15.3-34.2-34.2v-59c0-18.8,15.3-34.2,34.2-34.2h16.9
		c18.8,0,34.2,15.3,34.2,34.2v59C139.4,134.4,124.1,149.7,105.3,149.7z M88.5,51.4c-2.8,0-5.2,2.3-5.2,5.2v59c0,2.8,2.3,5.2,5.2,5.2
		h16.9c2.8,0,5.2-2.3,5.2-5.2v-59c0-2.8-2.3-5.2-5.2-5.2C105.3,51.4,88.5,51.4,88.5,51.4z"/>
	
		<linearGradient id="SVGID_3_" gradientUnits="userSpaceOnUse" x1="367.1021" y1="398.4866" x2="439.5352" y2="501.9318" gradientTransform="matrix(1 0 0 -1 0 536.3)">
		<stop  offset="0" style="stop-color:#FFFFFF"/>
		<stop  offset="0" style="stop-color:#1EA69A"/>
		<stop  offset="1" style="stop-color:#7DC24E"/>
		<stop  offset="1" style="stop-color:#000000"/>
	</linearGradient>
	<path class="st2" d="M411.8,149.7h-16.9c-18.8,0-34.2-15.3-34.2-34.2v-59c0-18.8,15.3-34.2,34.2-34.2h16.9
		c18.8,0,34.2,15.3,34.2,34.2v59C445.9,134.4,430.6,149.7,411.8,149.7z M395,51.4c-2.8,0-5.2,2.3-5.2,5.2v59c0,2.8,2.3,5.2,5.2,5.2
		h16.9c2.8,0,5.2-2.3,5.2-5.2v-59c0-2.8-2.3-5.2-5.2-5.2C411.8,51.4,395,51.4,395,51.4z"/>
	
		<linearGradient id="SVGID_4_" gradientUnits="userSpaceOnUse" x1="213.8566" y1="398.4866" x2="286.2897" y2="501.9318" gradientTransform="matrix(1 0 0 -1 0 536.3)">
		<stop  offset="0" style="stop-color:#FFFFFF"/>
		<stop  offset="0" style="stop-color:#1EA69A"/>
		<stop  offset="1" style="stop-color:#7DC24E"/>
		<stop  offset="1" style="stop-color:#000000"/>
	</linearGradient>
	<path class="st3" d="M258.5,149.7h-16.9c-18.8,0-34.2-15.3-34.2-34.2v-59c0-18.8,15.3-34.2,34.2-34.2h16.9
		c18.8,0,34.2,15.3,34.2,34.2v59C292.7,134.4,277.4,149.7,258.5,149.7z M241.7,51.4c-2.8,0-5.2,2.3-5.2,5.2v59
		c0,2.8,2.3,5.2,5.2,5.2h16.9c2.8,0,5.2-2.3,5.2-5.2v-59c0-2.8-2.3-5.2-5.2-5.2C258.5,51.4,241.7,51.4,241.7,51.4z"/>
</g>
<g id="Layer_1">
	
		<linearGradient id="SVGID_5_" gradientUnits="userSpaceOnUse" x1="156.1511" y1="242.6163" x2="348.3695" y2="517.1326" gradientTransform="matrix(1 0 0 -1 0 536.3)">
		<stop  offset="0" style="stop-color:#FFFFFF"/>
		<stop  offset="0" style="stop-color:#1EA69A"/>
		<stop  offset="1" style="stop-color:#7DC24E"/>
		<stop  offset="1" style="stop-color:#000000"/>
	</linearGradient>
	<path class="st4" d="M485.5,194.6v-55.8c0-25.1-20.3-45.4-45.4-45.4h-380c-25.1,0-45.4,20.3-45.4,45.4v55.8H485.5z"/>
	<g>
		
			<linearGradient id="SVGID_6_" gradientUnits="userSpaceOnUse" x1="146.981" y1="224.3783" x2="359.0386" y2="527.2279" gradientTransform="matrix(1 0 0 -1 0 536.3)">
			<stop  offset="0" style="stop-color:#FFFFFF"/>
			<stop  offset="0" style="stop-color:#1EA69A"/>
			<stop  offset="1" style="stop-color:#7DC24E"/>
			<stop  offset="1" style="stop-color:#000000"/>
		</linearGradient>
		<path class="st5" d="M500,209.2H0.2v-70.3c0-33,26.8-59.8,59.8-59.8h380.1c33,0,59.8,26.8,59.8,59.8L500,209.2L500,209.2z
			 M29.2,180.2H471v-41.3c0-17-13.9-30.8-30.8-30.8H60.1c-17,0-30.8,13.9-30.8,30.8C29.2,138.9,29.2,180.2,29.2,180.2z"/>
		
			<linearGradient id="SVGID_7_" gradientUnits="userSpaceOnUse" x1="67.5356" y1="226.0225" x2="121.7092" y2="303.3904" gradientTransform="matrix(1 0 0 -1 0 536.3)">
			<stop  offset="0" style="stop-color:#FFFFFF"/>
			<stop  offset="0" style="stop-color:#1EA69A"/>
			<stop  offset="1" style="stop-color:#7DC24E"/>
			<stop  offset="1" style="stop-color:#000000"/>
		</linearGradient>
		<path class="st6" d="M92.1,307.2h-29V265c0-12.3,10.1-22.4,22.4-22.4h50.2v29H92.1V307.2z"/>
		
			<linearGradient id="SVGID_8_" gradientUnits="userSpaceOnUse" x1="168.5605" y1="226.0225" x2="222.7341" y2="303.3904" gradientTransform="matrix(1 0 0 -1 0 536.3)">
			<stop  offset="0" style="stop-color:#FFFFFF"/>
			<stop  offset="0" style="stop-color:#1EA69A"/>
			<stop  offset="1" style="stop-color:#7DC24E"/>
			<stop  offset="1" style="stop-color:#000000"/>
		</linearGradient>
		<path class="st7" d="M193.1,307.2h-29V265c0-12.3,10.1-22.4,22.4-22.4h50.2v29h-43.5V307.2L193.1,307.2z"/>
		
			<linearGradient id="SVGID_9_" gradientUnits="userSpaceOnUse" x1="269.5854" y1="226.0225" x2="323.7589" y2="303.3904" gradientTransform="matrix(1 0 0 -1 0 536.3)">
			<stop  offset="0" style="stop-color:#FFFFFF"/>
			<stop  offset="0" style="stop-color:#1EA69A"/>
			<stop  offset="1" style="stop-color:#7DC24E"/>
			<stop  offset="1" style="stop-color:#000000"/>
		</linearGradient>
		<path class="st8" d="M294.1,307.2h-29V265c0-12.3,10.1-22.4,22.4-22.4h50.2v29h-43.5L294.1,307.2L294.1,307.2z"/>
		
			<linearGradient id="SVGID_10_" gradientUnits="userSpaceOnUse" x1="370.6104" y1="226.0225" x2="424.7839" y2="303.3904" gradientTransform="matrix(1 0 0 -1 0 536.3)">
			<stop  offset="0" style="stop-color:#FFFFFF"/>
			<stop  offset="0" style="stop-color:#1EA69A"/>
			<stop  offset="1" style="stop-color:#7DC24E"/>
			<stop  offset="1" style="stop-color:#000000"/>
		</linearGradient>
		<path class="st9" d="M395.2,307.2h-29V265c0-12.3,10.1-22.4,22.4-22.4h50.2v29h-43.5L395.2,307.2L395.2,307.2z"/>
		
			<linearGradient id="SVGID_11_" gradientUnits="userSpaceOnUse" x1="67.5356" y1="121.5813" x2="121.7092" y2="198.9492" gradientTransform="matrix(1 0 0 -1 0 536.3)">
			<stop  offset="0" style="stop-color:#FFFFFF"/>
			<stop  offset="0" style="stop-color:#1EA69A"/>
			<stop  offset="1" style="stop-color:#7DC24E"/>
			<stop  offset="1" style="stop-color:#000000"/>
		</linearGradient>
		<path class="st10" d="M92.1,411.6h-29v-42.2c0-12.3,10.1-22.4,22.4-22.4h50.2v29H92.1V411.6z"/>
		
			<linearGradient id="SVGID_12_" gradientUnits="userSpaceOnUse" x1="168.5605" y1="121.5813" x2="222.7341" y2="198.9492" gradientTransform="matrix(1 0 0 -1 0 536.3)">
			<stop  offset="0" style="stop-color:#FFFFFF"/>
			<stop  offset="0" style="stop-color:#1EA69A"/>
			<stop  offset="1" style="stop-color:#7DC24E"/>
			<stop  offset="1" style="stop-color:#000000"/>
		</linearGradient>
		<path class="st11" d="M193.1,411.6h-29v-42.2c0-12.3,10.1-22.4,22.4-22.4h50.2v29h-43.5V411.6L193.1,411.6z"/>
		
			<linearGradient id="SVGID_13_" gradientUnits="userSpaceOnUse" x1="269.5854" y1="121.5813" x2="323.7589" y2="198.9492" gradientTransform="matrix(1 0 0 -1 0 536.3)">
			<stop  offset="0" style="stop-color:#FFFFFF"/>
			<stop  offset="0" style="stop-color:#1EA69A"/>
			<stop  offset="1" style="stop-color:#7DC24E"/>
			<stop  offset="1" style="stop-color:#000000"/>
		</linearGradient>
		<path class="st12" d="M294.1,411.6h-29v-42.2c0-12.3,10.1-22.4,22.4-22.4h50.2v29h-43.5L294.1,411.6L294.1,411.6z"/>
		
			<linearGradient id="SVGID_14_" gradientUnits="userSpaceOnUse" x1="370.6104" y1="121.5813" x2="424.7839" y2="198.9492" gradientTransform="matrix(1 0 0 -1 0 536.3)">
			<stop  offset="0" style="stop-color:#FFFFFF"/>
			<stop  offset="0" style="stop-color:#1EA69A"/>
			<stop  offset="1" style="stop-color:#7DC24E"/>
			<stop  offset="1" style="stop-color:#000000"/>
		</linearGradient>
		<path class="st13" d="M395.2,411.6h-29v-42.2c0-12.3,10.1-22.4,22.4-22.4h50.2v29h-43.5L395.2,411.6L395.2,411.6z"/>
	</g>
</g>
<g id="Слой_2_1_">
</g>
</svg>
