<?xml version="1.0" encoding="utf-8"?>
<!-- Generator: Adobe Illustrator 21.1.0, SVG Export Plug-In . SVG Version: 6.00 Build 0)  -->
<svg version="1.1" id="Слой_1" xmlns="http://www.w3.org/2000/svg" xmlns:xlink="http://www.w3.org/1999/xlink" x="0px" y="0px"
	 viewBox="0 0 500 500" style="enable-background:new 0 0 500 500;" xml:space="preserve">
<style type="text/css">
	.st0{fill:url(#SVGID_1_);}
</style>
<linearGradient id="SVGID_1_" gradientUnits="userSpaceOnUse" x1="132.8418" y1="-51.4231" x2="511.5502" y2="489.4285" gradientTransform="matrix(1 0 0 -1 0 502)">
	<stop  offset="0" style="stop-color:#FFFFFF"/>
	<stop  offset="0" style="stop-color:#1EA69A"/>
	<stop  offset="1" style="stop-color:#7DC24E"/>
	<stop  offset="1" style="stop-color:#7AC151"/>
	<stop  offset="1" style="stop-color:#000000"/>
</linearGradient>
<path class="st0" d="M486.9,162.5h-138c-7.2,0-13.1-5.9-13.1-13.1V11.3c0-7.2,5.9-13.1,13.1-13.1h138c7.2,0,13.1,5.9,13.1,13.1
	v138.2C500,156.7,494.1,162.5,486.9,162.5z M473.9,24.4h-112v112h111.9L473.9,24.4L473.9,24.4z M283.6,463.4
	c-2.5,2.5-5.9,3.9-9.3,3.9c-3.4,0-6.7-1.3-9.3-3.9c-5.1-5.1-5.1-13.4,0-18.5l14.5-14.5H192c-7.2,0-13.1-5.9-13.1-13.1
	s5.9-13.1,13.1-13.1h87.5L265,389.7c-5.1-5.1-5.1-13.4,0-18.5c5.1-5.1,13.4-5.1,18.5,0l36.8,36.9c5.1,5.1,5.1,13.4,0,18.5
	L283.6,463.4z M293.4,100.6c-101.1,0-183.5,77.9-186.3,174.6l14.3-14.3c5.1-5.1,13.4-5.1,18.5,0c5.1,5.1,5.1,13.4,0,18.5l-36.8,36.9
	c-2.5,2.5-5.9,3.9-9.3,3.9s-6.7-1.3-9.3-3.9l-36.8-36.9c-5.1-5.1-5.1-13.4,0-18.5c5.1-5.1,13.4-5.1,18.5,0l14.6,14.6
	c2.7-111.3,97-201,212.6-201c7.2,0,13.1,5.9,13.1,13.1C306.5,94.7,300.6,100.6,293.4,100.6z M164.3,417.6
	c0,45.3-36.8,82.2-82.1,82.2S0,462.9,0,417.6s36.9-82.2,82.1-82.2C127.4,335.5,164.3,372.4,164.3,417.6z M26.1,417.6
	c0,30.9,25.1,56,56,56c30.8,0,56-25.1,56-56s-25.1-56-56-56C51.3,361.6,26.1,386.8,26.1,417.6z M417.9,322.3
	c-7.2,0-13.1-5.9-13.1-13.1v-81.6l-14.5,14.5c-5.1,5.1-13.4,5.1-18.5,0c-5.1-5.1-5.1-13.4,0-18.5l36.8-36.9c5.1-5.1,13.4-5.1,18.5,0
	l36.8,36.9c5.1,5.1,5.1,13.4,0,18.5c-2.5,2.5-5.9,3.9-9.3,3.9s-6.7-1.3-9.3-3.9l-14.5-14.5v81.6C431,316.4,425.1,322.3,417.9,322.3z
	 M417.9,335.5c45.3,0,82.1,36.9,82.1,82.2c0,45.2-36.9,82.1-82.1,82.1s-82.1-36.9-82.1-82.2S372.6,335.5,417.9,335.5z M417.9,473.6
	c30.8,0,56-25.1,56-56s-25.1-56-56-56c-30.8,0-56,25.1-56,56S387,473.6,417.9,473.6z"/>
</svg>
