<?xml version="1.0" encoding="utf-8"?>
<!-- Generator: Adobe Illustrator 21.1.0, SVG Export Plug-In . SVG Version: 6.00 Build 0)  -->
<svg version="1.1" id="Слой_1" xmlns="http://www.w3.org/2000/svg" xmlns:xlink="http://www.w3.org/1999/xlink" x="0px" y="0px"
	 viewBox="0 0 24 30" style="enable-background:new 0 0 24 30;" xml:space="preserve">
<style type="text/css">
	.st0{fill:url(#SVGID_1_);}
	.st1{fill:url(#SVGID_2_);}
</style>
<g>
	<linearGradient id="SVGID_1_" gradientUnits="userSpaceOnUse" x1="7.109" y1="21.2007" x2="10.891" y2="15.7993">
		<stop  offset="0" style="stop-color:#FFFFFF"/>
		<stop  offset="0" style="stop-color:#E9F4E1"/>
		<stop  offset="0" style="stop-color:#1EA69A"/>
		<stop  offset="1" style="stop-color:#7DC24E"/>
		<stop  offset="1" style="stop-color:#000000"/>
	</linearGradient>
	<path class="st0" d="M11,16H7c-0.3,0-0.5,0.2-0.5,0.5v4C6.5,20.8,6.7,21,7,21h4c0.3,0,0.5-0.2,0.5-0.5v-4C11.5,16.2,11.3,16,11,16z
		 M10.5,20h-3v-3h3V20z"/>
	<linearGradient id="SVGID_2_" gradientUnits="userSpaceOnUse" x1="4.4975" y1="25.1729" x2="22.1437" y2="-2.848243e-02">
		<stop  offset="0" style="stop-color:#FFFFFF"/>
		<stop  offset="0" style="stop-color:#E9F4E1"/>
		<stop  offset="0" style="stop-color:#1EA69A"/>
		<stop  offset="1" style="stop-color:#7DC24E"/>
		<stop  offset="1" style="stop-color:#000000"/>
	</linearGradient>
	<path class="st1" d="M22.5,0.3C22.4,0.1,22.2,0,22,0c-3.4,0-6.8,1.1-8.4,2.7C12.3,4,12.1,6,13,7.5c-0.3,0.5-0.5,1-0.5,1.6H12
		c-0.3,0-0.5,0.2-0.5,0.5v0.8L9.4,8.1C9.2,8,8.8,8,8.6,8.1l-7,7c-0.1,0.1-0.2,0.4-0.1,0.5C1.6,15.9,1.8,16,2,16h0.5v7.5
		C2.5,23.8,2.7,24,3,24h12c0.3,0,0.5-0.2,0.5-0.5V16H16c0.2,0,0.4-0.1,0.5-0.3s0-0.4-0.1-0.5l-1.9-1.9V9.5C14.5,9.2,14.3,9,14,9
		h-0.4c0-0.2,0.1-0.5,0.2-0.7C14.3,8.8,15.2,9,16,9c1.3,0,2.7-0.5,3.3-1.1c1.2-1.2,1.5-2.7,1.8-4.1c0.2-1.2,0.5-2.2,1.2-2.9
		C22.5,0.7,22.5,0.5,22.5,0.3z M14.8,15c-0.2,0.1-0.3,0.3-0.3,0.5V23h-11v-7.5c0-0.2-0.1-0.4-0.3-0.5L9,9.2l2.6,2.6
		C11.8,12,12,12,12.2,12c0.2-0.1,0.3-0.3,0.3-0.5V10h1v3.5c0,0.1,0.1,0.3,0.1,0.4L14.8,15z M20.2,3.6c-0.3,1.3-0.5,2.6-1.5,3.6
		c-0.8,0.8-3.3,1.3-4.3,0.3l-0.1-0.1C15.2,6,16.6,5,17,5c0.3,0,0.5-0.2,0.5-0.5S17.3,4,17,4c-0.8,0-2.3,1-3.3,2.4
		c-0.4-1-0.2-2.2,0.7-3.1c1-1,3.6-2.1,6.6-2.3C20.5,1.8,20.4,2.7,20.2,3.6z"/>
</g>
</svg>
