<?xml version="1.0" encoding="utf-8"?>
<!-- Generator: Adobe Illustrator 21.1.0, SVG Export Plug-In . SVG Version: 6.00 Build 0)  -->
<svg version="1.1" id="Layer_1" xmlns="http://www.w3.org/2000/svg" xmlns:xlink="http://www.w3.org/1999/xlink" x="0px" y="0px"
	 viewBox="0 0 488.4 488.4" style="enable-background:new 0 0 488.4 488.4;" xml:space="preserve">
<style type="text/css">
	.st0{display:none;fill:url(#XMLID_2_);}
	.st1{fill:url(#SVGID_1_);}
	.st2{fill:url(#SVGID_2_);}
	.st3{fill:url(#SVGID_3_);}
	.st4{fill:url(#SVGID_4_);}
	.st5{fill:url(#SVGID_5_);}
	.st6{fill:url(#SVGID_6_);}
	.st7{fill:url(#SVGID_7_);}
	.st8{fill:url(#SVGID_8_);}
	.st9{fill:url(#SVGID_9_);}
	.st10{fill:url(#SVGID_10_);}
	.st11{fill:url(#SVGID_11_);}
	.st12{fill:url(#SVGID_12_);}
	.st13{fill:url(#SVGID_13_);}
	.st14{fill:url(#SVGID_14_);}
</style>
<g>
	<g>
		<linearGradient id="XMLID_2_" gradientUnits="userSpaceOnUse" x1="45.8036" y1="295.3947" x2="117.5441" y2="192.9387">
			<stop  offset="0" style="stop-color:#FFFFFF"/>
			<stop  offset="0" style="stop-color:#1EA69A"/>
			<stop  offset="1" style="stop-color:#7DC24E"/>
			<stop  offset="1" style="stop-color:#000000"/>
		</linearGradient>
		<path id="XMLID_163_" class="st0" d="M108,296.4H55.4c-14.3,0-26-11.7-26-25.9v-52.6c0-14.3,11.7-26,25.9-26h52.6
			c14.3,0,26,11.7,26,25.9v52.6C134,284.7,122.3,296.4,108,296.4z"/>
		<g id="XMLID_155_">
			<linearGradient id="SVGID_1_" gradientUnits="userSpaceOnUse" x1="46.5163" y1="294.3761" x2="116.7837" y2="194.0239">
				<stop  offset="0" style="stop-color:#FFFFFF"/>
				<stop  offset="0" style="stop-color:#1EA69A"/>
				<stop  offset="1" style="stop-color:#7DC24E"/>
				<stop  offset="1" style="stop-color:#000000"/>
			</linearGradient>
			<path class="st1" d="M81.7,305.5L81.7,305.5c-33.8,0-61.3-27.5-61.4-61.3c0-16.3,6.4-31.7,18-43.3s27-18,43.3-18
				c33.8,0,61.3,27.5,61.4,61.3c0,16.3-6.4,31.7-18,43.3S98,305.5,81.7,305.5z M81.7,201c-11.5,0-22.3,4.5-30.5,12.7
				s-12.7,19-12.7,30.5c0,23.8,19.4,43.2,43.2,43.2v9.1v-9.1c11.5,0,22.3-4.5,30.5-12.7s12.7-19,12.7-30.5
				C124.9,220.4,105.5,201,81.7,201z"/>
		</g>
		<linearGradient id="SVGID_2_" gradientUnits="userSpaceOnUse" x1="46.3853" y1="111.5204" x2="116.7071" y2="11.0905">
			<stop  offset="0" style="stop-color:#FFFFFF"/>
			<stop  offset="0" style="stop-color:#1EA69A"/>
			<stop  offset="1" style="stop-color:#7DC24E"/>
			<stop  offset="1" style="stop-color:#000000"/>
		</linearGradient>
		<path class="st2" d="M81.5,122.6C81.5,122.6,81.6,122.6,81.5,122.6c16.4,0,31.8-6.4,43.4-18s18-27,18-43.3
			C142.9,27.5,115.4,0,81.5,0C65.2,0,49.8,6.4,38.2,18s-18,27-18,43.3C20.2,95.1,47.7,122.6,81.5,122.6z M51,30.8
			c8.2-8.2,19-12.7,30.5-12.7c23.8,0,43.2,19.4,43.2,43.2c0,11.5-4.5,22.3-12.7,30.5s-19,12.7-30.5,12.7v9.1v-9.1
			c-23.8,0-43.2-19.4-43.2-43.2C38.3,49.8,42.8,39,51,30.8z"/>
		<linearGradient id="SVGID_3_" gradientUnits="userSpaceOnUse" x1="46.6448" y1="477.292" x2="116.944" y2="376.8943">
			<stop  offset="0" style="stop-color:#FFFFFF"/>
			<stop  offset="0" style="stop-color:#1EA69A"/>
			<stop  offset="1" style="stop-color:#7DC24E"/>
			<stop  offset="1" style="stop-color:#000000"/>
		</linearGradient>
		<path class="st3" d="M81.8,365.8c-16.3,0-31.7,6.4-43.3,18s-18,27-18,43.3c0,33.8,27.5,61.3,61.3,61.3l0,0
			c33.8,0,61.3-27.6,61.3-61.4C143.1,393.3,115.6,365.8,81.8,365.8z M81.9,470.3v9.1V470.3c-23.8,0-43.2-19.4-43.2-43.2
			c0-11.5,4.5-22.3,12.7-30.5s19-12.7,30.5-12.7c23.8,0,43.2,19.4,43.2,43.2C125,450.9,105.7,470.3,81.9,470.3z"/>
		<linearGradient id="SVGID_4_" gradientUnits="userSpaceOnUse" x1="288.5073" y1="123.7564" x2="380.8799" y2="-8.1654">
			<stop  offset="0" style="stop-color:#FFFFFF"/>
			<stop  offset="0" style="stop-color:#1EA69A"/>
			<stop  offset="1" style="stop-color:#7DC24E"/>
			<stop  offset="1" style="stop-color:#000000"/>
		</linearGradient>
		<path class="st4" d="M468.2,57.7c0-5-4.1-9.1-9.1-9.1l0,0l-248.8,0.2c-5,0-9.1,4.1-9.1,9.1s4.1,9.1,9.1,9.1l0,0l248.8-0.2
			C464.1,66.7,468.2,62.7,468.2,57.7z"/>
		<linearGradient id="SVGID_5_" gradientUnits="userSpaceOnUse" x1="201.8228" y1="251.5307" x2="212.2118" y2="236.6935">
			<stop  offset="0" style="stop-color:#FFFFFF"/>
			<stop  offset="0" style="stop-color:#1EA69A"/>
			<stop  offset="1" style="stop-color:#7DC24E"/>
			<stop  offset="1" style="stop-color:#000000"/>
		</linearGradient>
		<path class="st5" d="M198,244.1c0,2.4,1,4.7,2.6,6.4c1.7,1.7,4,2.7,6.4,2.7s4.7-1,6.4-2.7s2.7-4,2.7-6.4s-1-4.7-2.7-6.4
			s-4-2.7-6.4-2.7s-4.7,1-6.4,2.7C199,239.4,198,241.7,198,244.1z"/>
		<linearGradient id="SVGID_6_" gradientUnits="userSpaceOnUse" x1="232.9326" y1="251.5374" x2="243.3544" y2="236.6535">
			<stop  offset="0" style="stop-color:#FFFFFF"/>
			<stop  offset="0" style="stop-color:#1EA69A"/>
			<stop  offset="1" style="stop-color:#7DC24E"/>
			<stop  offset="1" style="stop-color:#000000"/>
		</linearGradient>
		<path class="st6" d="M247.2,244.1c0-5-4-9.1-9.1-9.1c-5,0-9.1,4.1-9,9.1c0,5,4,9.1,9.1,9.1C243.2,253.1,247.3,249.1,247.2,244.1z"
			/>
		<linearGradient id="SVGID_7_" gradientUnits="userSpaceOnUse" x1="263.999" y1="251.5533" x2="274.455" y2="236.6206">
			<stop  offset="0" style="stop-color:#FFFFFF"/>
			<stop  offset="0" style="stop-color:#1EA69A"/>
			<stop  offset="1" style="stop-color:#7DC24E"/>
			<stop  offset="1" style="stop-color:#000000"/>
		</linearGradient>
		<path class="st7" d="M278.3,244c0-5-4-9-9.1-9c-5,0-9.1,4.1-9.1,9.1s4.1,9.1,9.1,9.1C274.3,253.1,278.4,249.1,278.3,244z"/>
		<linearGradient id="SVGID_8_" gradientUnits="userSpaceOnUse" x1="419.6442" y1="251.3149" x2="430.0372" y2="236.4721">
			<stop  offset="0" style="stop-color:#FFFFFF"/>
			<stop  offset="0" style="stop-color:#1EA69A"/>
			<stop  offset="1" style="stop-color:#7DC24E"/>
			<stop  offset="1" style="stop-color:#000000"/>
		</linearGradient>
		<path class="st8" d="M433.9,243.9c0-5-4.1-9.1-9.1-9.1s-9,4.1-9,9.1s4.1,9.1,9.1,9.1C429.8,253,433.9,248.9,433.9,243.9z"/>
		<linearGradient id="SVGID_9_" gradientUnits="userSpaceOnUse" x1="357.4534" y1="251.3853" x2="367.8295" y2="236.5667">
			<stop  offset="0" style="stop-color:#FFFFFF"/>
			<stop  offset="0" style="stop-color:#1EA69A"/>
			<stop  offset="1" style="stop-color:#7DC24E"/>
			<stop  offset="1" style="stop-color:#000000"/>
		</linearGradient>
		<path class="st9" d="M371.7,244c0-5-4.1-9.1-9.1-9.1s-9,4.1-9,9.1s4,9,9.1,9C367.6,253,371.7,249,371.7,244z"/>
		<linearGradient id="SVGID_10_" gradientUnits="userSpaceOnUse" x1="326.3598" y1="251.3897" x2="336.7359" y2="236.5711">
			<stop  offset="0" style="stop-color:#FFFFFF"/>
			<stop  offset="0" style="stop-color:#1EA69A"/>
			<stop  offset="1" style="stop-color:#7DC24E"/>
			<stop  offset="1" style="stop-color:#000000"/>
		</linearGradient>
		<path class="st10" d="M340.6,244c0-5-4.1-9.1-9.1-9.1s-9,4.1-9,9.1s4,9,9.1,9C336.5,253.1,340.6,249,340.6,244z"/>
		<linearGradient id="SVGID_11_" gradientUnits="userSpaceOnUse" x1="388.5377" y1="251.4104" x2="398.9308" y2="236.5676">
			<stop  offset="0" style="stop-color:#FFFFFF"/>
			<stop  offset="0" style="stop-color:#1EA69A"/>
			<stop  offset="1" style="stop-color:#7DC24E"/>
			<stop  offset="1" style="stop-color:#000000"/>
		</linearGradient>
		<path class="st11" d="M402.8,244c0-5-4.1-9.1-9.1-9.1s-9,4.1-9,9.1s4.1,9.1,9.1,9.1C398.7,253,402.8,249,402.8,244z"/>
		<linearGradient id="SVGID_12_" gradientUnits="userSpaceOnUse" x1="295.1923" y1="251.4861" x2="305.6251" y2="236.5866">
			<stop  offset="0" style="stop-color:#FFFFFF"/>
			<stop  offset="0" style="stop-color:#1EA69A"/>
			<stop  offset="1" style="stop-color:#7DC24E"/>
			<stop  offset="1" style="stop-color:#000000"/>
		</linearGradient>
		<path class="st12" d="M309.5,244c0-5-4.1-9.1-9.1-9c-5,0-9.1,4-9,9.1c0,5,4,9.1,9.1,9C305.4,253.1,309.5,249,309.5,244z"/>
		<linearGradient id="SVGID_13_" gradientUnits="userSpaceOnUse" x1="450.7054" y1="251.3186" x2="461.0945" y2="236.4814">
			<stop  offset="0" style="stop-color:#FFFFFF"/>
			<stop  offset="0" style="stop-color:#1EA69A"/>
			<stop  offset="1" style="stop-color:#7DC24E"/>
			<stop  offset="1" style="stop-color:#000000"/>
		</linearGradient>
		<path class="st13" d="M462.3,250.3c1.7-1.7,2.7-4,2.7-6.4s-1-4.7-2.7-6.4s-4-2.7-6.4-2.7s-4.7,1-6.4,2.7c-1.7,1.7-2.7,4-2.7,6.4
			s1,4.7,2.7,6.4s4,2.7,6.4,2.7S460.6,252,462.3,250.3z"/>
		<linearGradient id="SVGID_14_" gradientUnits="userSpaceOnUse" x1="285.5104" y1="492.8586" x2="377.883" y2="360.9368">
			<stop  offset="0" style="stop-color:#FFFFFF"/>
			<stop  offset="0" style="stop-color:#1EA69A"/>
			<stop  offset="1" style="stop-color:#7DC24E"/>
			<stop  offset="1" style="stop-color:#000000"/>
		</linearGradient>
		<path class="st14" d="M198.2,427c0,5,4.1,9.1,9.1,9.1l0,0l248.8-0.2c5,0,9.1-4.1,9.1-9.1s-4.1-9.1-9.1-9.1l0,0L207.2,418
			C202.2,418,198.2,422,198.2,427z"/>
	</g>
</g>
</svg>
