<?xml version="1.0" encoding="utf-8"?>
<!-- Generator: Adobe Illustrator 21.1.0, SVG Export Plug-In . SVG Version: 6.00 Build 0)  -->
<svg version="1.1" id="Layer_1" xmlns="http://www.w3.org/2000/svg" xmlns:xlink="http://www.w3.org/1999/xlink" x="0px" y="0px"
	 viewBox="0 0 488 488" style="enable-background:new 0 0 488 488;" xml:space="preserve">
<style type="text/css">
	.st0{fill:url(#SVGID_1_);}
	.st1{fill:url(#SVGID_2_);}
</style>
<g transform="translate(0 -540.36)">
	<g>
		<g>
			<linearGradient id="SVGID_1_" gradientUnits="userSpaceOnUse" x1="193.7202" y1="822.6663" x2="286.4665" y2="690.2108">
				<stop  offset="0" style="stop-color:#FFFFFF"/>
				<stop  offset="0" style="stop-color:#1EA69A"/>
				<stop  offset="1" style="stop-color:#7DC24E"/>
				<stop  offset="1" style="stop-color:#000000"/>
			</linearGradient>
			<path class="st0" d="M288.2,824.8L288.2,824.8c2,0,4-0.6,6-1.8c3.5-2.4,5-6.9,3.8-11l-14.2-47.5l38.4-29.3
				c3.4-2.6,4.7-7.1,3.4-11.1c-1.4-4.1-5.1-6.8-9.4-6.9l-47.5-0.7L253.9,670c-1.3-4.1-5.1-7-9.4-7c-4.4-0.1-8.2,2.7-9.6,6.8
				l-15.5,45.9l-47.6,0.7c-4.3,0.1-8.1,2.9-9.4,6.9c-1.4,4.1,0,8.5,3.4,11.1l38.3,29.3l-14.8,47.4c-1.3,4.1,0.2,8.6,3.7,11.1
				s8.2,2.5,11.7,0l38.8-27.8l38.8,28.5C284,824.2,286.1,824.8,288.2,824.8z M249.4,773.9c-1.7-1.3-3.8-1.9-5.9-1.9
				c-2,0-4.1,0.6-5.9,1.7l-20.4,14.6l8-25.6c1.2-4-0.2-8.3-3.5-10.9l-20.9-16l25.8-0.4c4.2-0.1,7.9-2.8,9.3-6.8l8-23.6l7.7,24.2
				c1.3,4.1,5.1,6.9,9.4,7l25.8,0.4l-20.9,16c-3.3,2.5-4.7,6.8-3.5,10.8L270,789L249.4,773.9z"/>
			<linearGradient id="SVGID_2_" gradientUnits="userSpaceOnUse" x1="104.9642" y1="1007.1246" x2="391.2707" y2="598.2365">
				<stop  offset="0" style="stop-color:#FFFFFF"/>
				<stop  offset="0" style="stop-color:#1EA69A"/>
				<stop  offset="1" style="stop-color:#7DC24E"/>
				<stop  offset="1" style="stop-color:#000000"/>
			</linearGradient>
			<path class="st1" d="M442.7,801.9c11.2-39.9,9.5-82.7-4.8-123.7c-28.3-81.6-105.4-137-192.1-137.8c-42.9,0-84,12.8-118.9,36.9
				c-35,24.2-61,58-75.3,97.6c-15.3,41.3-17.7,84.4-6.9,124.7c10.7,40.2,34.2,75.2,68.1,101.8L70.9,972c-1.4,2.4-1.8,5.3-1,7.9
				c0.8,2.7,2.6,4.9,5.1,6.1l82.4,41.2c1.4,0.7,3,1.1,4.5,1.1c3.4,0,6.6-1.7,8.5-4.7l47.7-76.8h52l47.3,76.8c1.9,3,5.2,4.8,8.5,4.8
				c1.5,0,3-0.3,4.5-1.1l82.4-41.2c2.5-1.2,4.3-3.4,5.1-6.1c0.8-2.7,0.4-5.5-1-7.9l-41.5-70.7C408.5,875.5,431.7,841.2,442.7,801.9z
				 M158.2,1005.3L158.2,1005.3L93.6,973l41.1-69.2l21.2-35.7c20.6,14.3,44.8,23.7,71.1,26.6L158.2,1005.3z M110.3,743.9
				c0-73.1,60.1-132.5,134-132.5c73.5,0,133.2,59.5,133.2,132.5c0,72.7-59.8,131.8-133.2,131.8C170.4,875.7,110.3,816.6,110.3,743.9
				z M230.5,926.7l13.7-22.1l13.6,22.1H230.5z M394.4,973l-64.7,32.3l0,0l-68-110.5c25.8-2.8,50.1-12,71.1-26.7l20.9,35.5
				c0.1,0.1,0.2,0.3,0.2,0.4L394.4,973z M365.3,884l-16.8-28.6c1.4-1.3,2.9-2.7,4.3-4c28.9-28.6,44.8-66.8,44.8-107.4
				c0-84.1-68.7-152.5-153.3-152.5c-84.9,0-154.1,68.4-154.1,152.5c0,44.1,19.2,83.9,49.8,111.6l-16.9,28.5
				c-59.9-48.5-80.7-126.7-52.7-202.3c26.2-72.6,96.7-121.4,175.4-121.4c78,0.7,147.6,50.7,173.3,124.4
				C445.1,759.3,424,836.3,365.3,884z"/>
		</g>
	</g>
</g>
</svg>
