<?xml version="1.0" encoding="utf-8"?>
<!-- Generator: Adobe Illustrator 21.0.0, SVG Export Plug-In . SVG Version: 6.00 Build 0)  -->
<svg version="1.1" id="Слой_1" xmlns="http://www.w3.org/2000/svg" xmlns:xlink="http://www.w3.org/1999/xlink" x="0px" y="0px"
	 viewBox="0 0 100 102" style="enable-background:new 0 0 100 102;" xml:space="preserve">
<path d="M50,95C25.2,95,5,74.8,5,50C5,25.2,25.2,5,50,5c24.8,0,45,20.2,45,45C95,74.8,74.8,95,50,95z M50,10.5
	c-21.8,0-39.5,17.7-39.5,39.5c0,21.8,17.7,39.5,39.5,39.5c21.8,0,39.5-17.7,39.5-39.5C89.5,28.2,71.8,10.5,50,10.5z"/>
<g>
	<path d="M49,50.5c2.3,2.4,6,2.6,8.4,0.4l9-8.2c2.4-2.2,2.6-6,0.4-8.4c-2.2-2.4-6-2.6-8.4-0.4l-5.8,5.3c-2.8-1.3-6.1-1.6-9.2-1.2
		c0.4-0.4,0.7-0.8,1.1-1.2l9-8.2c5.4-4.8,13.7-4.4,18.5,0.9c4.9,5.4,4.4,13.7-0.9,18.5l-9,8.2c-5.4,4.8-13.7,4.4-18.5-0.9
		c-1-1.1-1.7-2.1-2.2-3.4c-0.1-0.5,0.4-1,0.7-1.3c1.8-1.6,4.2-1.9,6.1-0.7C48.3,49.9,48.8,50.3,49,50.5z"/>
	<path d="M50.3,48.9c-2.3-2.4-6-2.6-8.4-0.4l-9,8.2c-2.4,2.2-2.6,6-0.4,8.4c2.2,2.4,6,2.6,8.4,0.4l5.8-5.3c2.8,1.3,6.1,1.6,9.2,1.2
		c-0.4,0.4-0.7,0.8-1.1,1.2l-9,8.2c-5.4,4.8-13.7,4.4-18.5-0.9c-4.9-5.4-4.4-13.7,0.9-18.5l9-8.2c5.4-4.8,13.7-4.4,18.5,0.9
		c1,1.1,1.7,2.1,2.2,3.4c0.1,0.5-0.4,1-0.7,1.3c-1.8,1.6-4.2,1.9-6.1,0.7C51,49.5,50.5,49.1,50.3,48.9z"/>
</g>
<text transform="matrix(1 0 0 1 0 115)" style="display:none;enable-background:new    ; font-family:'HelveticaNeueCyr-Bold'; font-size:5px;">Created by Aaron K. Kim</text>
<text transform="matrix(1 0 0 1 0 120)" style="display:none;enable-background:new    ; font-family:'HelveticaNeueCyr-Bold'; font-size:5px;">from the Noun Project</text>
</svg>
