<?xml version="1.0" encoding="utf-8"?>
<!-- Generator: Adobe Illustrator 21.0.0, SVG Export Plug-In . SVG Version: 6.00 Build 0)  -->
<svg version="1.1" id="Слой_1" xmlns="http://www.w3.org/2000/svg" xmlns:xlink="http://www.w3.org/1999/xlink" x="0px" y="0px"
	 viewBox="0 0 512 474" style="enable-background:new 0 0 512 474;" xml:space="preserve">
<path d="M320,202.6v-59.8l3.3,3.3l0,0c4.2,4.2,10.9,4.2,15.1,0c4.2-4.2,4.2-10.9,0-15.1l0,0l-74.6-74.7l0,0
	c-4.2-4.2-10.9-4.2-15.1,0c0,0,0,0-0.1,0.1c0,0,0,0-0.1,0.1l0,0L174,131.1l0,0l0,0c-4.2,4.2-4.2,10.9,0,15.1s10.9,4.2,15.1,0l0,0
	l3.1-3.1v59.6H0v256.1h512V202.6H320z M490.7,437.4H448c0,0,0-0.1,0-0.1c0-106-86-192-192-192s-192,86-192,192c0,0,0,0.1,0,0.1H21.3
	c0,0,0-0.1,0-0.1c0-31.7,6.2-62.4,18.4-91.3c11.8-27.9,28.8-53,50.3-74.6c19.8-19.9,42.7-35.8,68.1-47.4h195.8
	c25.3,11.6,48.2,27.5,68.1,47.4c21.6,21.6,38.5,46.7,50.3,74.6c12.3,28.9,18.4,59.7,18.4,91.3C490.7,437.3,490.7,437.3,490.7,437.4z
	 M213.3,437.3c0-23.5,19.1-42.7,42.7-42.7s42.7,19.1,42.7,42.7c0,0,0,0.1,0,0.1h-85.3C213.3,437.3,213.3,437.3,213.3,437.3z
	 M256,373.3c-35.3,0-64,28.7-64,64c0,0,0,0.1,0,0.1h-43.3c0,0,0-0.1,0-0.1c0-28.7,11.2-55.6,31.4-75.9
	c20.3-20.3,47.2-31.4,75.9-31.4c28.7,0,55.6,11.2,75.9,31.4c20.3,20.3,31.4,47.2,31.4,75.9c0,0,0,0.1,0,0.1H320c0,0,0-0.1,0-0.1
	C320,401.9,291.3,373.3,256,373.3z M256,308.6c-71.1,0-128.7,57.6-128.7,128.7c0,0,0,0.1,0,0.1h-42c0,0,0-0.1,0-0.1
	c0-23.1,4.5-45.4,13.4-66.4c8.6-20.3,20.9-38.6,36.6-54.3c15.7-15.7,33.9-28,54.3-36.6c21-8.9,43.4-13.4,66.4-13.4
	c23,0,45.4,4.5,66.4,13.4c20.3,8.6,38.6,20.9,54.3,36.6c15.7,15.7,28,33.9,36.6,54.3c8.9,21,13.4,43.4,13.4,66.4c0,0,0,0.1,0,0.1
	h-42c0,0,0-0.1,0-0.1C384.7,366.2,327.1,308.6,256,308.6z M213.5,121.7L256.2,79l42.4,42.5v81.1h-31.7v-32c0-5.9-4.8-10.7-10.7-10.7
	c-5.9,0-10.7,4.8-10.7,10.7v32h-32.1V121.7z M21.3,223.9h93.1C73.7,251,41.2,289.5,21.3,334.8C21.3,334.8,21.3,223.9,21.3,223.9z
	 M397.5,223.9h93.1v110.9C470.8,289.5,438.3,251,397.5,223.9z"/>
<text transform="matrix(1 0 0 1 0 527)" style="display:none;enable-background:new    ; font-family:'HelveticaNeueCyr-Bold'; font-size:5px;">Created by lastspark</text>
<text transform="matrix(1 0 0 1 0 532)" style="display:none;enable-background:new    ; font-family:'HelveticaNeueCyr-Bold'; font-size:5px;">from the Noun Project</text>
</svg>
