<?xml version="1.0" encoding="utf-8"?>
<!-- Generator: Adobe Illustrator 21.0.0, SVG Export Plug-In . SVG Version: 6.00 Build 0)  -->
<svg version="1.1" id="Слой_1" xmlns="http://www.w3.org/2000/svg" xmlns:xlink="http://www.w3.org/1999/xlink" x="0px" y="0px"
	 viewBox="0 0 100 102" style="enable-background:new 0 0 100 102;" xml:space="preserve">
<path d="M5,50h7.5v42.5h75V50H95L50,5L5,50z M35,85H20V50h15V85z M35,45H20.6L35,30.6V45z M60,85H40V50h20V85z M65,30.6L79.4,45H65
	V30.6z M65,50h15v35H65V50z M60,45H40V27.5h20V45z M43.1,22.5l6.9-6.9l6.9,6.9H43.1z"/>
<text transform="matrix(1 0 0 1 0 115)" style="display:none;enable-background:new    ; font-family:'HelveticaNeueCyr-Bold'; font-size:5px;">Created by Arthur Shlain</text>
<text transform="matrix(1 0 0 1 0 120)" style="display:none;enable-background:new    ; font-family:'HelveticaNeueCyr-Bold'; font-size:5px;">from the Noun Project</text>
</svg>
