<?xml version="1.0" encoding="utf-8"?>
<!-- Generator: Adobe Illustrator 21.0.0, SVG Export Plug-In . SVG Version: 6.00 Build 0)  -->
<svg version="1.1" id="Слой_1" xmlns="http://www.w3.org/2000/svg" xmlns:xlink="http://www.w3.org/1999/xlink" x="0px" y="0px"
	 viewBox="0 0 100 101" style="enable-background:new 0 0 100 101;" xml:space="preserve">
<path d="M90.1,60.2h-4.2V30.3h0.3c1.1,0,2-0.9,2-2s-0.9-2-2-2h-2L33.3,14.8l-0.2-2.2l0,0c0,0,0,0,0-0.1c-0.1-1-0.9-1.8-2-1.8
	c-1.1,0-2,0.9-2,2l0,0l-0.2,2.6l-19.4,11H7.7c-1.1,0-2,0.9-2,2s0.9,2,2,2H10l0,0l0,0h17.6l-5,57.2H21c-1.1,0-2,0.9-2,2s0.9,2,2,2
	h20.3c1.1,0,2-0.9,2-2s-0.9-2-2-2h-1.6l-5-57.2h47.2v29.9h-4.2c-2.1,0-3.9,1.7-3.9,3.9v7.4c0,2.1,1.7,3.9,3.9,3.9h12.5
	c2.1,0,3.9-1.7,3.9-3.9v-7.4C94,62,92.2,60.2,90.1,60.2z M33.4,61.1l0.2,1.8l-1-1L33.4,61.1z M31.1,69.9l-2.8-2.8l0.1-1.2l2.7-2.7
	l2.7,2.7l0.1,1.2L31.1,69.9z M34.1,69.8l0.3,3.5l-1.9-1.9L34.1,69.8z M29.7,71.3l-1.9,1.9l0.3-3.5L29.7,71.3z M31.1,60.5l-2-2
	l0.1-1.4l1.9-1.9l1.9,1.9l0.1,1.4L31.1,60.5z M32.7,54l-0.2-0.2l0.2-0.2V54z M31.1,38.5l0.3,0.3l0.1,1.3l-0.4,0.4l-0.4-0.4l0.1-1.3
	L31.1,38.5z M31.1,35.7L31.1,35.7L31.1,35.7L31.1,35.7L31.1,35.7z M31.1,43.3l0.7,0.7l0.1,0.9l-0.8,0.8L30.3,45l0.1-0.9L31.1,43.3z
	 M31.1,48.6l1.2,1.2l0.1,1.2L31,52.4L29.6,51l0.1-1.2L31.1,48.6z M29.5,54v-0.4l0.2,0.2L29.5,54z M28.9,61.1l0.8,0.8l-1,1L28.9,61.1
	z M17.5,26.3l10.9-6.2l-0.5,6.2H17.5z M27.2,80.4l2.5,2.5l-3,3L27.2,80.4z M27.9,87.5l3.2-3.2l3.2,3.2H27.9z M35.5,85.9l-3-3
	l2.5-2.5L35.5,85.9z M34.7,76.3l0.1,1.4l-3.7,3.7l-3.7-3.7l0.1-1.4l3.6-3.6L34.7,76.3z M34.3,26.3l-0.6-7.4l32.4,7.4H34.3z M90,71.4
	H77.7v-7.1H90V71.4z"/>
<text transform="matrix(1 0 0 1 0 115)" style="display:none;enable-background:new    ;"><tspan x="0" y="0" style="display:inline; font-family:'HelveticaNeueCyr-Bold'; font-size:5px;">Created by Gloria Vigan</tspan><tspan x="56.5" y="0" style="display:inline; font-family:'MyriadPro-Regular'; font-size:5px;">ò</tspan></text>
<text transform="matrix(1 0 0 1 0 120)" style="display:none;enable-background:new    ; font-family:'HelveticaNeueCyr-Bold'; font-size:5px;">from the Noun Project</text>
</svg>
