<?xml version="1.0" encoding="utf-8"?>
<!-- Generator: Adobe Illustrator 21.0.0, SVG Export Plug-In . SVG Version: 6.00 Build 0)  -->
<svg version="1.1" id="Слой_1" xmlns="http://www.w3.org/2000/svg" xmlns:xlink="http://www.w3.org/1999/xlink" x="0px" y="0px"
	 viewBox="0 0 110.2 94" style="enable-background:new 0 0 110.2 94;" xml:space="preserve">
<g>
	<g>
		<path d="M107.7,28.1h-7.2l5-5c1-1,1-2.6,0-3.5c-1-1-2.6-1-3.5,0l-8.5,8.5l-7.8,0l15.7-15.7c1-1,1-2.6,0-3.5c-1-1-2.6-1-3.5,0
			L82.2,24.5v-7.8l8.5-8.5c1-1,1-2.6,0-3.5c-1-1-2.6-1-3.5,0l-5,5V2.5C82.2,1.1,81,0,79.7,0c-1.4,0-2.5,1.1-2.5,2.5v7.2l-4.9-5
			c-1-1-2.6-1-3.5,0c-1,1-1,2.6,0,3.5l8.5,8.5V25L46.6,2L1,36.3c-1.1,0.8-1.3,2.4-0.5,3.5c0.5,0.7,1.2,1,2,1c0.5,0,1.1-0.2,1.5-0.5
			l7-5.3v54.8h71.2V58.6c0,0,0,0,0,0v-7.2l5,5c0.5,0.5,1.1,0.7,1.8,0.7s1.3-0.2,1.8-0.7c1-1,1-2.6,0-3.5l-8.5-8.5v-7.8l15.7,15.7
			c1,1,2.6,1,3.5,0c1-1,1-2.6,0-3.5L85.7,33.1l7.8,0l8.5,8.5c0.5,0.5,1.1,0.7,1.8,0.7s1.3-0.2,1.8-0.7c1-1,1-2.6,0-3.5l-5-5h7.2
			c1.4,0,2.5-1.1,2.5-2.5S109.1,28.1,107.7,28.1z M52.7,84.8H40.5v-25h12.2V84.8z M57.7,84.8v-30H35.5v30H16V31.7c0-0.1,0-0.2,0-0.4
			L46.6,8.2l26.3,19.8l-7,0l-8.5-8.5c-1-1-2.6-1-3.5,0c-1,1-1,2.6,0,3.5l5,5h-7.2c-1.4,0-2.5,1.1-2.5,2.5s1.1,2.5,2.5,2.5h7.2l-5,5
			c-1,1-1,2.6,0,3.5c0.5,0.5,1.1,0.7,1.8,0.7s1.3-0.2,1.8-0.7l8.5-8.5l7.8,0L58,48.7c-1,1-1,2.6,0,3.5c0.5,0.5,1.1,0.7,1.8,0.7
			s1.3-0.2,1.8-0.7l15.7-15.7v7.8l-8.5,8.5c-1,1-1,2.6,0,3.5c1,1,2.6,1,3.5,0l5-5v33.4L57.7,84.8L57.7,84.8z"/>
	</g>
</g>
<text transform="matrix(1 0 0 1 0 104.833)" style="display:none;enable-background:new    ; font-family:'HelveticaNeueCyr-Bold'; font-size:5px;">Created by Jean Yashu</text>
<text transform="matrix(1 0 0 1 0 109.833)" style="display:none;enable-background:new    ; font-family:'HelveticaNeueCyr-Bold'; font-size:5px;">from the Noun Project</text>
</svg>
