<?xml version="1.0" encoding="utf-8"?>
<!-- Generator: Adobe Illustrator 21.0.0, SVG Export Plug-In . SVG Version: 6.00 Build 0)  -->
<svg version="1.1" id="Слой_1" xmlns="http://www.w3.org/2000/svg" xmlns:xlink="http://www.w3.org/1999/xlink" x="0px" y="0px"
	 viewBox="0 0 128 135" style="enable-background:new 0 0 128 135;" xml:space="preserve">
<g>
	<g>
		<path d="M85.2,127.5H7.8c-1.1,0-2-0.9-2-2v-10.8c0-1.1,0.9-2,2-2h77.4c1.1,0,2,0.9,2,2v10.8C87.2,126.6,86.3,127.5,85.2,127.5z
			 M9.8,123.5h73.4v-6.8H9.8V123.5z"/>
	</g>
	<g>
		<path d="M49.8,116.7H25c-1.1,0-2-0.9-2-2V2.5c0-1.1,0.9-2,2-2h24.8c1.1,0,2,0.9,2,2v112.2C51.8,115.8,50.9,116.7,49.8,116.7z
			 M27,112.7h20.8V4.5H27V112.7z"/>
	</g>
	<g>
		<path d="M120.2,24H7.8c-1.1,0-2-0.9-2-2v-9.4c0-1.1,0.9-2,2-2h112.5c1.1,0,2,0.9,2,2V22C122.2,23.1,121.3,24,120.2,24z M9.8,20
			h108.5v-5.4H9.8V20z"/>
	</g>
	<g>
		<path d="M115,37.2h-11.9c-1.1,0-2-0.9-2-2V22c0-1.1,0.9-2,2-2H115c1.1,0,2,0.9,2,2v13.1C117,36.3,116.1,37.2,115,37.2z
			 M105.1,33.2h7.9V24h-7.9V33.2z"/>
	</g>
	<g>
		<path d="M109,76.9c-1.1,0-2-0.9-2-2V35.2c0-1.1,0.9-2,2-2s2,0.9,2,2V75C111,76,110.1,76.9,109,76.9z"/>
	</g>
	<g>
		<path d="M109,107.8c-1.7,0-3.5-0.6-5.1-1.8c-0.1-0.1-0.3-0.2-0.4-0.4c-2-2.6-2.4-5.7-1.1-8.3c0.9-1.9,2.6-3.2,4.5-3.8v-6
			c0-1.1,0.9-2,2-2s2,0.9,2,2v7.7c0,1.1-0.9,2-2,2c-1.3,0-2.4,0.7-2.9,1.8c-0.6,1.2-0.4,2.6,0.5,3.9c1.3,0.9,2.7,1.1,3.9,0.5
			c1.1-0.6,1.8-1.7,1.8-2.9c0-1.1,0.9-2,2-2s2,0.9,2,2c0,2.8-1.5,5.3-4,6.5C111.2,107.5,110.1,107.8,109,107.8z"/>
	</g>
	<g>
		<path d="M49.7,115.7c-0.3,0-0.6-0.1-0.8-0.4L24.5,84.4c-0.3-0.4-0.3-1.1,0.2-1.4c0.4-0.3,1.1-0.3,1.4,0.2l24.5,30.9
			c0.3,0.4,0.3,1.1-0.2,1.4C50.2,115.6,50,115.7,49.7,115.7z"/>
	</g>
	<g>
		<path d="M25.2,115.7c-0.2,0-0.4-0.1-0.6-0.2c-0.4-0.3-0.5-1-0.2-1.4L49,83.2c0.3-0.4,1-0.5,1.4-0.2s0.5,1,0.2,1.4L26,115.3
			C25.8,115.6,25.5,115.7,25.2,115.7z"/>
	</g>
	<g>
		<path d="M49.7,84.8c-0.3,0-0.6-0.1-0.8-0.4L24.5,53.5c-0.3-0.4-0.3-1.1,0.2-1.4c0.4-0.3,1.1-0.3,1.4,0.2l24.5,30.9
			c0.3,0.4,0.3,1.1-0.2,1.4C50.2,84.7,50,84.8,49.7,84.8z"/>
	</g>
	<g>
		<path d="M25.2,84.8c-0.2,0-0.4-0.1-0.6-0.2c-0.4-0.3-0.5-1-0.2-1.4L49,52.3c0.3-0.4,1-0.5,1.4-0.2s0.5,1,0.2,1.4L26,84.4
			C25.8,84.7,25.5,84.8,25.2,84.8z"/>
	</g>
	<g>
		<path d="M49.7,53.9c-0.3,0-0.6-0.1-0.8-0.4L24.5,22.6c-0.3-0.4-0.3-1.1,0.2-1.4c0.4-0.3,1.1-0.3,1.4,0.2l24.5,30.9
			c0.3,0.4,0.3,1.1-0.2,1.4C50.2,53.8,50,53.9,49.7,53.9z"/>
	</g>
	<g>
		<path d="M25.2,53.9c-0.2,0-0.4-0.1-0.6-0.2c-0.4-0.3-0.5-1-0.2-1.4L49,21.4c0.3-0.4,1-0.5,1.4-0.2s0.5,1,0.2,1.4L26,53.5
			C25.8,53.8,25.5,53.9,25.2,53.9z"/>
	</g>
	<g>
		<path d="M114.2,89.5h-10.3c-1.1,0-2-0.9-2-2V75.2c0-1.1,0.9-2,2-2h10.3c1.1,0,2,0.9,2,2v12.3C116.2,88.6,115.3,89.5,114.2,89.5z
			 M105.9,85.5h6.3v-8.3h-6.3V85.5z"/>
	</g>
</g>
<text transform="matrix(1 0 0 1 0 143)" style="display:none;enable-background:new    ; font-family:'HelveticaNeueCyr-Bold'; font-size:5px;">Created by Vectors Market</text>
<text transform="matrix(1 0 0 1 0 148)" style="display:none;enable-background:new    ; font-family:'HelveticaNeueCyr-Bold'; font-size:5px;">from the Noun Project</text>
</svg>
